name rise49.5252peak65.1548fall88.8305.mot
datacolumns 19
datarows 17
range 18.94492300000000 18.97158700000000
endheader
time	ground_force1_vx	ground_force1_vy	ground_force1_vz	ground_force1_px	ground_force1_py	ground_force1_pz	ground_force2_vx	ground_force2_vy	ground_force2_vz	ground_force2_px	ground_force2_py	ground_force2_pz	ground_torque1_x	ground_torque1_y	ground_torque1_z	ground_torque2_x	ground_torque2_y	ground_torque2_z	
18.94492300000000	-8.92006800000000	41.81027500000000	-10.32978100000000	0.36144700000000	0.00000000000000	0.09962700000000	-44.18825700000000	786.71465000000001	-57.36823200000000	0.17110000000000	0.00000000000000	-0.08371300000000	0.00000000000000	-7.23929800000000	0.00000000000000	0.00000000000000	-25.25879100000000	0.00000000000000	
18.94659100000000	-9.89052800000000	48.78623300000000	-11.59307700000000	0.36483700000000	0.00000000000000	0.10071100000000	-44.54800100000000	783.79335500000002	-57.02160500000000	0.17034300000000	0.00000000000000	-0.08362100000000	0.00000000000000	-8.17824700000000	0.00000000000000	0.00000000000000	-25.09792500000000	0.00000000000000	
18.94825600000000	-10.72084200000000	55.79309200000000	-12.73306500000000	0.36801800000000	0.00000000000000	0.10171300000000	-44.92003000000000	780.78410899999994	-56.65771300000000	0.16958700000000	0.00000000000000	-0.08352500000000	0.00000000000000	-9.04261700000000	0.00000000000000	0.00000000000000	-24.93592500000000	0.00000000000000	
18.94992100000000	-11.38675700000000	62.73623800000000	-13.72248400000000	0.37101600000000	0.00000000000000	0.10264400000000	-45.30463900000000	777.68675599999995	-56.27659700000000	0.16883300000000	0.00000000000000	-0.08342500000000	0.00000000000000	-9.81254300000000	0.00000000000000	0.00000000000000	-24.77296800000000	0.00000000000000	
18.95159400000000	-11.87305700000000	69.54563100000000	-14.54346700000000	0.37385400000000	0.00000000000000	0.10351200000000	-45.70205500000000	774.50103200000001	-55.87830800000000	0.16808100000000	0.00000000000000	-0.08332200000000	0.00000000000000	-10.47454500000000	0.00000000000000	0.00000000000000	-24.60921900000000	0.00000000000000	
18.95325400000000	-12.17353200000000	76.17776100000000	-15.18763300000000	0.37655100000000	0.00000000000000	0.10432500000000	-46.11243800000000	771.22657300000003	-55.46290300000000	0.16733200000000	0.00000000000000	-0.08321500000000	0.00000000000000	-11.02169000000000	0.00000000000000	0.00000000000000	-24.44483400000000	0.00000000000000	
18.95492500000000	-12.29023100000000	82.61511400000001	-15.65539000000000	0.37912300000000	0.00000000000000	0.10509000000000	-46.53587400000000	767.86290399999996	-55.03044800000000	0.16658600000000	0.00000000000000	-0.08310500000000	0.00000000000000	-11.45320500000000	0.00000000000000	0.00000000000000	-24.27995500000000	0.00000000000000	
18.95659600000000	-12.23215500000000	88.86357400000000	-15.95463200000000	0.38158300000000	0.00000000000000	0.10581200000000	-46.97237100000000	764.40944900000000	-54.58101800000000	0.16584400000000	0.00000000000000	-0.08299100000000	0.00000000000000	-11.77363800000000	0.00000000000000	0.00000000000000	-24.11471200000000	0.00000000000000	
18.95826000000000	-12.01362000000000	94.94835100000000	-16.09905300000000	0.38394100000000	0.00000000000000	0.10649500000000	-47.42186300000000	760.86552200000006	-54.11469500000000	0.16510500000000	0.00000000000000	-0.08287300000000	0.00000000000000	-11.99172800000000	0.00000000000000	0.00000000000000	-23.94922100000000	0.00000000000000	
18.95991900000000	-11.65246200000000	100.90902000000000	-16.10627500000000	0.38620800000000	0.00000000000000	0.10714400000000	-47.88420000000000	757.23033699999996	-53.63157200000000	0.16437200000000	0.00000000000000	-0.08275100000000	0.00000000000000	-12.11912800000000	0.00000000000000	0.00000000000000	-23.78358400000000	0.00000000000000	
18.96159300000000	-11.16827900000000	106.79424100000000	-15.99598000000000	0.38839100000000	0.00000000000000	0.10776200000000	-48.35914900000000	753.50300300000004	-53.13175400000000	0.16364300000000	0.00000000000000	-0.08262600000000	0.00000000000000	-12.16910200000000	0.00000000000000	0.00000000000000	-23.61788900000000	0.00000000000000	
18.96325500000000	-10.58081900000000	112.65664599999999	-15.78820100000000	0.39049700000000	0.00000000000000	0.10835100000000	-48.84639200000000	749.68253000000004	-52.61535200000000	0.16292000000000	0.00000000000000	-0.08249700000000	0.00000000000000	-12.15531700000000	0.00000000000000	0.00000000000000	-23.45220900000000	0.00000000000000	
18.96492300000000	-9.90865400000000	118.54826700000000	-15.50187200000000	0.39253100000000	0.00000000000000	0.10891500000000	-49.34552300000000	745.76783200000000	-52.08249400000000	0.16220300000000	0.00000000000000	-0.08236300000000	0.00000000000000	-12.09080000000000	0.00000000000000	0.00000000000000	-23.28660200000000	0.00000000000000	
18.96658600000000	-9.16816000000000	124.51677200000000	-15.15371800000000	0.39449900000000	0.00000000000000	0.10945400000000	-49.85605000000000	741.75773000000004	-51.53331700000000	0.16149200000000	0.00000000000000	-0.08222600000000	0.00000000000000	-11.98713200000000	0.00000000000000	0.00000000000000	-23.12111100000000	0.00000000000000	
18.96825300000000	-8.37285000000000	130.60266200000001	-14.75750500000000	0.39640400000000	0.00000000000000	0.10997200000000	-50.37738800000000	737.65095799999995	-50.96797100000000	0.16078900000000	0.00000000000000	-0.08208500000000	0.00000000000000	-11.85388200000000	0.00000000000000	0.00000000000000	-22.95576400000000	0.00000000000000	
18.96992400000000	-7.53304400000000	136.83747299999999	-14.32363900000000	0.39825100000000	0.00000000000000	0.11046900000000	-50.90886300000000	733.44616699999995	-50.38662200000000	0.16009400000000	0.00000000000000	-0.08194000000000	0.00000000000000	-11.69828900000000	0.00000000000000	0.00000000000000	-22.79057000000000	0.00000000000000	
18.97158700000000	-6.65583300000000	143.24292600000001	-13.85909900000000	0.40004200000000	0.00000000000000	0.11094800000000	-51.44971200000000	729.14193000000000	-49.78945000000000	0.15940600000000	0.00000000000000	-0.08179100000000	0.00000000000000	-11.52518600000000	0.00000000000000	0.00000000000000	-22.62552700000000	0.00000000000000	
